<svg width="37" height="37" viewBox="0 0 47 46" fill="none" xmlns="http://www.w3.org/2000/svg">
<path d="M24.0181 8.09741e-05C15.8547 -0.0213143 8.67089 4.19891 4.56509 10.5747C4.38309 10.8582 4.5865 11.2326 4.92375 11.2326H8.68695C8.9439 11.2326 9.18478 11.1203 9.34538 10.9224C9.72009 10.4677 10.1216 10.0291 10.5445 9.61193C12.2896 7.87356 14.3184 6.50426 16.5774 5.55216C18.9113 4.56798 21.3951 4.06519 23.9592 4.06519C26.5233 4.06519 29.0072 4.56263 31.3411 5.55216C33.6001 6.50426 35.6289 7.87356 37.374 9.61193C39.1191 11.3503 40.4841 13.3775 41.4423 15.6294C42.4326 17.9614 42.9305 20.438 42.9305 23C42.9305 25.5621 42.4273 28.0386 41.4423 30.3707C40.4895 32.6226 39.1191 34.6498 37.374 36.3882C35.6289 38.1265 33.6001 39.4958 31.3411 40.4479C29.0053 41.4337 26.4948 41.9394 23.9592 41.9349C21.3951 41.9349 18.9113 41.4321 16.5774 40.4479C14.3228 39.4968 12.2741 38.1181 10.5445 36.3882C10.1216 35.9656 9.72544 35.527 9.34538 35.0777C9.18478 34.8798 8.93854 34.7675 8.68695 34.7675H4.92375C4.5865 34.7675 4.37773 35.1419 4.56509 35.4254C8.66554 41.7851 15.8172 46 23.9592 46C36.6032 46 46.8703 35.8319 46.9988 23.2354C47.1273 10.4356 36.8441 0.0321739 24.0181 8.09741e-05ZM17.2369 28.9907V24.9256H0.428245C0.19271 24.9256 0 24.7331 0 24.4977V21.5024C0 21.267 0.19271 21.0745 0.428245 21.0745H17.2369V17.0094C17.2369 16.651 17.6544 16.4477 17.9328 16.6724L25.5287 22.6631C25.5799 22.7031 25.6213 22.7542 25.6498 22.8126C25.6783 22.871 25.6931 22.9351 25.6931 23C25.6931 23.065 25.6783 23.1291 25.6498 23.1875C25.6213 23.2458 25.5799 23.297 25.5287 23.337L17.9328 29.3277C17.6544 29.547 17.2369 29.3491 17.2369 28.9907Z" fill="white"/>
</svg>
