<svg width="62" height="62" viewBox="0 0 62 62" fill="none" xmlns="http://www.w3.org/2000/svg">
<path d="M32.594 33.0165L31.0612 38.2627H26.091L26.62 36.5036H16.945L9.33173 61.0032H4.46802L13.1916 33.0165H32.594ZM29.3695 43.5416L23.9245 61.0032H11.7636L12.8215 57.5194H20.0646L23.3955 47.0271H18.5302L19.6421 43.5416H29.3695Z" fill="#EEEEEE"/>
<path d="M56.8001 33.0165L48.129 61.0032H28.6758L37.3993 33.0198L56.8001 33.0165ZM50.8261 36.5019H41.1511L34.6007 57.5162H44.2757L50.8261 36.5019Z" fill="#EEEEEE"/>
<path d="M24.8 0H4.13333V4.13793H0V24.8276H4.13333V28.9655H20.6732V24.8276H24.8066V20.6897H28.9399V4.13137H24.8V0ZM20.6667 16.5583H12.4V20.6897H16.5399V24.8276H8.26667V4.13793H20.6667V16.5583Z" fill="#EEEEEE"/>
<path d="M28.9334 24.8276H24.8V28.9655H28.9334V24.8276Z" fill="#EEEEEE"/>
<path d="M62 16.5583V4.13793H57.8666V0H33.0667V28.9655H41.3333V20.6897H45.4667V24.8276H49.6V28.9655H62V24.8276H57.8666V20.6897H53.7333V16.5583H62ZM49.6 12.4138V16.5583H41.3333V4.13793H53.7333V12.4138H49.6Z" fill="#EEEEEE"/>
</svg>
